<mxfile host="app.diagrams.net" agent="Mozilla/5.0 (Windows NT 10.0; Win64; x64) AppleWebKit/537.36 (KHTML, like Gecko) Chrome/135.0.0.0 Safari/537.36" version="26.2.14">
  <diagram name="Page-1" id="yWAGCbAmBZnLHNG6qEEs">
    <mxGraphModel dx="2524" dy="1192" grid="1" gridSize="10" guides="1" tooltips="1" connect="1" arrows="1" fold="1" page="1" pageScale="1" pageWidth="850" pageHeight="1100" math="0" shadow="0">
      <root>
        <mxCell id="0" />
        <mxCell id="1" parent="0" />
        <mxCell id="h3xbIJ4pENWaJq-9NY1t-1" value="" style="ellipse;html=1;shape=startState;fillColor=#000000;strokeColor=#ff0000;" parent="1" vertex="1">
          <mxGeometry x="120" y="10" width="30" height="30" as="geometry" />
        </mxCell>
        <mxCell id="h3xbIJ4pENWaJq-9NY1t-2" value="" style="edgeStyle=orthogonalEdgeStyle;html=1;verticalAlign=bottom;endArrow=open;endSize=8;strokeColor=#ff0000;rounded=0;" parent="1" source="h3xbIJ4pENWaJq-9NY1t-1" target="h3xbIJ4pENWaJq-9NY1t-9" edge="1">
          <mxGeometry relative="1" as="geometry">
            <mxPoint x="365" y="25" as="targetPoint" />
          </mxGeometry>
        </mxCell>
        <mxCell id="h3xbIJ4pENWaJq-9NY1t-9" value="Mở form quản lý sổ khám&lt;br&gt;điện tử" style="rounded=1;whiteSpace=wrap;html=1;arcSize=40;fontColor=#000000;fillColor=#ffffc0;strokeColor=#ff0000;" parent="1" vertex="1">
          <mxGeometry x="370" y="5" width="120" height="40" as="geometry" />
        </mxCell>
        <mxCell id="h3xbIJ4pENWaJq-9NY1t-29" value="" style="shape=line;html=1;strokeWidth=6;strokeColor=#ff0000;" parent="1" vertex="1">
          <mxGeometry x="330" y="140" width="200" height="10" as="geometry" />
        </mxCell>
        <mxCell id="h3xbIJ4pENWaJq-9NY1t-30" value="" style="edgeStyle=orthogonalEdgeStyle;html=1;verticalAlign=bottom;endArrow=open;endSize=8;strokeColor=#ff0000;rounded=0;" parent="1" source="h3xbIJ4pENWaJq-9NY1t-29" target="h3xbIJ4pENWaJq-9NY1t-33" edge="1">
          <mxGeometry relative="1" as="geometry">
            <mxPoint x="430" y="280" as="targetPoint" />
          </mxGeometry>
        </mxCell>
        <mxCell id="h3xbIJ4pENWaJq-9NY1t-31" value="" style="edgeStyle=orthogonalEdgeStyle;html=1;verticalAlign=bottom;endArrow=open;endSize=8;strokeColor=#ff0000;rounded=0;entryX=0.5;entryY=0.2;entryDx=0;entryDy=0;entryPerimeter=0;" parent="1" source="h3xbIJ4pENWaJq-9NY1t-9" target="h3xbIJ4pENWaJq-9NY1t-29" edge="1">
          <mxGeometry relative="1" as="geometry">
            <mxPoint x="319.5" y="160" as="targetPoint" />
            <mxPoint x="319.5" y="90" as="sourcePoint" />
          </mxGeometry>
        </mxCell>
        <mxCell id="h3xbIJ4pENWaJq-9NY1t-33" value="Sửa thông tin sổ khám" style="rounded=1;whiteSpace=wrap;html=1;arcSize=40;fontColor=#000000;fillColor=#ffffc0;strokeColor=#ff0000;" parent="1" vertex="1">
          <mxGeometry x="370" y="190" width="120" height="40" as="geometry" />
        </mxCell>
        <mxCell id="h3xbIJ4pENWaJq-9NY1t-34" value="" style="edgeStyle=orthogonalEdgeStyle;html=1;verticalAlign=bottom;endArrow=open;endSize=8;strokeColor=#ff0000;rounded=0;" parent="1" source="h3xbIJ4pENWaJq-9NY1t-33" target="h3xbIJ4pENWaJq-9NY1t-42" edge="1">
          <mxGeometry relative="1" as="geometry">
            <mxPoint x="430" y="390" as="targetPoint" />
          </mxGeometry>
        </mxCell>
        <mxCell id="h3xbIJ4pENWaJq-9NY1t-35" value="Tạo mới sổ khám" style="rounded=1;whiteSpace=wrap;html=1;arcSize=40;fontColor=#000000;fillColor=#ffffc0;strokeColor=#ff0000;" parent="1" vertex="1">
          <mxGeometry x="150" y="210" width="120" height="40" as="geometry" />
        </mxCell>
        <mxCell id="h3xbIJ4pENWaJq-9NY1t-36" value="" style="edgeStyle=orthogonalEdgeStyle;html=1;verticalAlign=bottom;endArrow=open;endSize=8;strokeColor=#ff0000;rounded=0;" parent="1" source="h3xbIJ4pENWaJq-9NY1t-35" target="h3xbIJ4pENWaJq-9NY1t-40" edge="1">
          <mxGeometry relative="1" as="geometry">
            <mxPoint x="210" y="320" as="targetPoint" />
          </mxGeometry>
        </mxCell>
        <mxCell id="h3xbIJ4pENWaJq-9NY1t-37" value="" style="edgeStyle=orthogonalEdgeStyle;html=1;verticalAlign=bottom;endArrow=open;endSize=8;strokeColor=#ff0000;rounded=0;exitX=0.53;exitY=0.4;exitDx=0;exitDy=0;exitPerimeter=0;" parent="1" source="h3xbIJ4pENWaJq-9NY1t-29" target="h3xbIJ4pENWaJq-9NY1t-35" edge="1">
          <mxGeometry relative="1" as="geometry">
            <mxPoint x="440" y="220" as="targetPoint" />
            <mxPoint x="440" y="160" as="sourcePoint" />
          </mxGeometry>
        </mxCell>
        <mxCell id="h3xbIJ4pENWaJq-9NY1t-38" value="Xóa sổ khám" style="rounded=1;whiteSpace=wrap;html=1;arcSize=40;fontColor=#000000;fillColor=#ffffc0;strokeColor=#ff0000;" parent="1" vertex="1">
          <mxGeometry x="590" y="190" width="120" height="40" as="geometry" />
        </mxCell>
        <mxCell id="h3xbIJ4pENWaJq-9NY1t-39" value="" style="edgeStyle=orthogonalEdgeStyle;html=1;verticalAlign=bottom;endArrow=open;endSize=8;strokeColor=#ff0000;rounded=0;exitX=0.6;exitY=0.5;exitDx=0;exitDy=0;exitPerimeter=0;" parent="1" source="h3xbIJ4pENWaJq-9NY1t-29" target="h3xbIJ4pENWaJq-9NY1t-38" edge="1">
          <mxGeometry relative="1" as="geometry">
            <mxPoint x="440" y="220" as="targetPoint" />
            <mxPoint x="440" y="160" as="sourcePoint" />
          </mxGeometry>
        </mxCell>
        <mxCell id="h3xbIJ4pENWaJq-9NY1t-40" value="Nhập thông tin bệnh nhân" style="rounded=1;whiteSpace=wrap;html=1;arcSize=40;fontColor=#000000;fillColor=#ffffc0;strokeColor=#ff0000;" parent="1" vertex="1">
          <mxGeometry x="150" y="300" width="120" height="40" as="geometry" />
        </mxCell>
        <mxCell id="h3xbIJ4pENWaJq-9NY1t-41" value="" style="edgeStyle=orthogonalEdgeStyle;html=1;verticalAlign=bottom;endArrow=open;endSize=8;strokeColor=#ff0000;rounded=0;" parent="1" source="h3xbIJ4pENWaJq-9NY1t-40" target="h3xbIJ4pENWaJq-9NY1t-47" edge="1">
          <mxGeometry relative="1" as="geometry">
            <mxPoint x="210" y="410" as="targetPoint" />
          </mxGeometry>
        </mxCell>
        <mxCell id="h3xbIJ4pENWaJq-9NY1t-42" value="" style="shape=line;html=1;strokeWidth=6;strokeColor=#ff0000;" parent="1" vertex="1">
          <mxGeometry x="460" y="340" width="200" height="10" as="geometry" />
        </mxCell>
        <mxCell id="h3xbIJ4pENWaJq-9NY1t-43" value="" style="edgeStyle=orthogonalEdgeStyle;html=1;verticalAlign=bottom;endArrow=open;endSize=8;strokeColor=#ff0000;rounded=0;" parent="1" source="h3xbIJ4pENWaJq-9NY1t-42" target="h3xbIJ4pENWaJq-9NY1t-45" edge="1">
          <mxGeometry relative="1" as="geometry">
            <mxPoint x="560" y="450" as="targetPoint" />
          </mxGeometry>
        </mxCell>
        <mxCell id="h3xbIJ4pENWaJq-9NY1t-44" value="" style="edgeStyle=orthogonalEdgeStyle;html=1;verticalAlign=bottom;endArrow=open;endSize=8;strokeColor=#ff0000;rounded=0;" parent="1" source="h3xbIJ4pENWaJq-9NY1t-38" target="h3xbIJ4pENWaJq-9NY1t-42" edge="1">
          <mxGeometry relative="1" as="geometry">
            <mxPoint x="570" y="380" as="targetPoint" />
            <mxPoint x="440" y="260" as="sourcePoint" />
          </mxGeometry>
        </mxCell>
        <mxCell id="h3xbIJ4pENWaJq-9NY1t-45" value="Tìm kiếm sổ khám" style="rounded=1;whiteSpace=wrap;html=1;arcSize=40;fontColor=#000000;fillColor=#ffffc0;strokeColor=#ff0000;" parent="1" vertex="1">
          <mxGeometry x="500" y="400" width="120" height="40" as="geometry" />
        </mxCell>
        <mxCell id="h3xbIJ4pENWaJq-9NY1t-46" value="" style="edgeStyle=orthogonalEdgeStyle;html=1;verticalAlign=bottom;endArrow=open;endSize=8;strokeColor=#ff0000;rounded=0;" parent="1" source="h3xbIJ4pENWaJq-9NY1t-45" target="h3xbIJ4pENWaJq-9NY1t-68" edge="1">
          <mxGeometry relative="1" as="geometry">
            <mxPoint x="570" y="560" as="targetPoint" />
          </mxGeometry>
        </mxCell>
        <mxCell id="h3xbIJ4pENWaJq-9NY1t-47" value="Kiểm tra thông tin&lt;br&gt;bệnh nhân" style="rounded=1;whiteSpace=wrap;html=1;arcSize=40;fontColor=#000000;fillColor=#ffffc0;strokeColor=#ff0000;" parent="1" vertex="1">
          <mxGeometry x="150" y="390" width="120" height="40" as="geometry" />
        </mxCell>
        <mxCell id="h3xbIJ4pENWaJq-9NY1t-48" value="" style="edgeStyle=orthogonalEdgeStyle;html=1;verticalAlign=bottom;endArrow=open;endSize=8;strokeColor=#ff0000;rounded=0;" parent="1" source="h3xbIJ4pENWaJq-9NY1t-47" target="h3xbIJ4pENWaJq-9NY1t-59" edge="1">
          <mxGeometry relative="1" as="geometry">
            <mxPoint x="210" y="490" as="targetPoint" />
          </mxGeometry>
        </mxCell>
        <mxCell id="h3xbIJ4pENWaJq-9NY1t-58" value="" style="edgeStyle=orthogonalEdgeStyle;html=1;verticalAlign=bottom;endArrow=open;endSize=8;strokeColor=#ff0000;rounded=0;" parent="1" source="h3xbIJ4pENWaJq-9NY1t-47" target="h3xbIJ4pENWaJq-9NY1t-40" edge="1">
          <mxGeometry relative="1" as="geometry">
            <mxPoint x="80" y="300" as="targetPoint" />
            <mxPoint x="110" y="330" as="sourcePoint" />
            <Array as="points">
              <mxPoint x="81" y="410" />
              <mxPoint x="81" y="320" />
            </Array>
          </mxGeometry>
        </mxCell>
        <mxCell id="h3xbIJ4pENWaJq-9NY1t-59" value="" style="rhombus;whiteSpace=wrap;html=1;fontColor=#000000;fillColor=#ffffc0;strokeColor=#ff0000;" parent="1" vertex="1">
          <mxGeometry x="170" y="480" width="80" height="40" as="geometry" />
        </mxCell>
        <mxCell id="h3xbIJ4pENWaJq-9NY1t-60" value="hủy" style="edgeStyle=orthogonalEdgeStyle;html=1;align=left;verticalAlign=bottom;endArrow=open;endSize=8;strokeColor=#ff0000;rounded=0;" parent="1" source="h3xbIJ4pENWaJq-9NY1t-59" target="h3xbIJ4pENWaJq-9NY1t-62" edge="1">
          <mxGeometry x="-1" relative="1" as="geometry">
            <mxPoint x="350" y="520" as="targetPoint" />
          </mxGeometry>
        </mxCell>
        <mxCell id="h3xbIJ4pENWaJq-9NY1t-61" value="đồng ý lưu" style="edgeStyle=orthogonalEdgeStyle;html=1;align=left;verticalAlign=top;endArrow=open;endSize=8;strokeColor=#ff0000;rounded=0;" parent="1" source="h3xbIJ4pENWaJq-9NY1t-59" target="h3xbIJ4pENWaJq-9NY1t-63" edge="1">
          <mxGeometry x="-1" relative="1" as="geometry">
            <mxPoint x="210" y="600" as="targetPoint" />
          </mxGeometry>
        </mxCell>
        <mxCell id="h3xbIJ4pENWaJq-9NY1t-62" value="" style="ellipse;html=1;shape=endState;fillColor=#000000;strokeColor=#ff0000;" parent="1" vertex="1">
          <mxGeometry x="310" y="765" width="30" height="30" as="geometry" />
        </mxCell>
        <mxCell id="h3xbIJ4pENWaJq-9NY1t-63" value="Tạo sổ mới thành công" style="rounded=1;whiteSpace=wrap;html=1;arcSize=40;fontColor=#000000;fillColor=#ffffc0;strokeColor=#ff0000;" parent="1" vertex="1">
          <mxGeometry x="120" y="610" width="120" height="40" as="geometry" />
        </mxCell>
        <mxCell id="h3xbIJ4pENWaJq-9NY1t-67" value="" style="edgeStyle=orthogonalEdgeStyle;html=1;verticalAlign=bottom;endArrow=open;endSize=8;strokeColor=#ff0000;rounded=0;" parent="1" source="h3xbIJ4pENWaJq-9NY1t-63" target="h3xbIJ4pENWaJq-9NY1t-62" edge="1">
          <mxGeometry relative="1" as="geometry">
            <mxPoint x="220" y="720" as="targetPoint" />
            <mxPoint x="220" y="660" as="sourcePoint" />
          </mxGeometry>
        </mxCell>
        <mxCell id="h3xbIJ4pENWaJq-9NY1t-68" value="" style="rhombus;whiteSpace=wrap;html=1;fontColor=#000000;fillColor=#ffffc0;strokeColor=#ff0000;" parent="1" vertex="1">
          <mxGeometry x="520" y="490" width="80" height="40" as="geometry" />
        </mxCell>
        <mxCell id="h3xbIJ4pENWaJq-9NY1t-69" value="K tìm thấy" style="edgeStyle=orthogonalEdgeStyle;html=1;align=left;verticalAlign=bottom;endArrow=open;endSize=8;strokeColor=#ff0000;rounded=0;" parent="1" source="h3xbIJ4pENWaJq-9NY1t-68" target="h3xbIJ4pENWaJq-9NY1t-62" edge="1">
          <mxGeometry x="-0.375" relative="1" as="geometry">
            <mxPoint x="710" y="580" as="targetPoint" />
            <mxPoint x="1" as="offset" />
          </mxGeometry>
        </mxCell>
        <mxCell id="h3xbIJ4pENWaJq-9NY1t-70" value="Tìm thấy" style="edgeStyle=orthogonalEdgeStyle;html=1;align=left;verticalAlign=top;endArrow=open;endSize=8;strokeColor=#ff0000;rounded=0;" parent="1" source="h3xbIJ4pENWaJq-9NY1t-68" target="h3xbIJ4pENWaJq-9NY1t-74" edge="1">
          <mxGeometry x="-1" relative="1" as="geometry">
            <mxPoint x="560" y="610" as="targetPoint" />
            <mxPoint as="offset" />
          </mxGeometry>
        </mxCell>
        <mxCell id="h3xbIJ4pENWaJq-9NY1t-71" value="Tra cứu thông tin sổ khám" style="rounded=1;whiteSpace=wrap;html=1;arcSize=40;fontColor=#000000;fillColor=#ffffc0;strokeColor=#ff0000;" parent="1" vertex="1">
          <mxGeometry x="760" y="180" width="120" height="40" as="geometry" />
        </mxCell>
        <mxCell id="h3xbIJ4pENWaJq-9NY1t-72" value="" style="edgeStyle=orthogonalEdgeStyle;html=1;verticalAlign=bottom;endArrow=open;endSize=8;strokeColor=#ff0000;rounded=0;" parent="1" source="h3xbIJ4pENWaJq-9NY1t-71" target="h3xbIJ4pENWaJq-9NY1t-42" edge="1">
          <mxGeometry relative="1" as="geometry">
            <mxPoint x="820" y="320" as="targetPoint" />
            <Array as="points">
              <mxPoint x="810" y="290" />
              <mxPoint x="560" y="290" />
            </Array>
          </mxGeometry>
        </mxCell>
        <mxCell id="h3xbIJ4pENWaJq-9NY1t-73" value="" style="edgeStyle=orthogonalEdgeStyle;html=1;verticalAlign=bottom;endArrow=open;endSize=8;strokeColor=#ff0000;rounded=0;" parent="1" source="h3xbIJ4pENWaJq-9NY1t-29" target="h3xbIJ4pENWaJq-9NY1t-71" edge="1">
          <mxGeometry relative="1" as="geometry">
            <mxPoint x="660" y="220" as="targetPoint" />
            <mxPoint x="460" y="155" as="sourcePoint" />
          </mxGeometry>
        </mxCell>
        <mxCell id="h3xbIJ4pENWaJq-9NY1t-74" value="" style="shape=line;html=1;strokeWidth=6;strokeColor=#ff0000;" parent="1" vertex="1">
          <mxGeometry x="460" y="625" width="200" height="10" as="geometry" />
        </mxCell>
        <mxCell id="h3xbIJ4pENWaJq-9NY1t-75" value="" style="edgeStyle=orthogonalEdgeStyle;html=1;verticalAlign=bottom;endArrow=open;endSize=8;strokeColor=#ff0000;rounded=0;" parent="1" source="h3xbIJ4pENWaJq-9NY1t-74" target="h3xbIJ4pENWaJq-9NY1t-76" edge="1">
          <mxGeometry relative="1" as="geometry">
            <mxPoint x="570" y="710" as="targetPoint" />
          </mxGeometry>
        </mxCell>
        <mxCell id="h3xbIJ4pENWaJq-9NY1t-76" value="Sửa thông tin sổ khám" style="rounded=1;whiteSpace=wrap;html=1;arcSize=40;fontColor=#000000;fillColor=#ffffc0;strokeColor=#ff0000;" parent="1" vertex="1">
          <mxGeometry x="365" y="710" width="120" height="40" as="geometry" />
        </mxCell>
        <mxCell id="h3xbIJ4pENWaJq-9NY1t-77" value="" style="edgeStyle=orthogonalEdgeStyle;html=1;verticalAlign=bottom;endArrow=open;endSize=8;strokeColor=#ff0000;rounded=0;" parent="1" source="h3xbIJ4pENWaJq-9NY1t-76" target="h3xbIJ4pENWaJq-9NY1t-47" edge="1">
          <mxGeometry relative="1" as="geometry">
            <mxPoint x="570" y="830" as="targetPoint" />
            <Array as="points">
              <mxPoint x="350" y="730" />
              <mxPoint x="350" y="410" />
            </Array>
          </mxGeometry>
        </mxCell>
        <mxCell id="h3xbIJ4pENWaJq-9NY1t-78" value="Xóa thông tin sổ khám" style="rounded=1;whiteSpace=wrap;html=1;arcSize=40;fontColor=#000000;fillColor=#ffffc0;strokeColor=#ff0000;" parent="1" vertex="1">
          <mxGeometry x="550" y="710" width="120" height="40" as="geometry" />
        </mxCell>
        <mxCell id="h3xbIJ4pENWaJq-9NY1t-79" value="" style="edgeStyle=orthogonalEdgeStyle;html=1;verticalAlign=bottom;endArrow=open;endSize=8;strokeColor=#ff0000;rounded=0;" parent="1" source="h3xbIJ4pENWaJq-9NY1t-78" target="h3xbIJ4pENWaJq-9NY1t-84" edge="1">
          <mxGeometry relative="1" as="geometry">
            <mxPoint x="590" y="815" as="targetPoint" />
          </mxGeometry>
        </mxCell>
        <mxCell id="h3xbIJ4pENWaJq-9NY1t-80" value="" style="edgeStyle=orthogonalEdgeStyle;html=1;verticalAlign=bottom;endArrow=open;endSize=8;strokeColor=#ff0000;rounded=0;" parent="1" source="h3xbIJ4pENWaJq-9NY1t-74" target="h3xbIJ4pENWaJq-9NY1t-78" edge="1">
          <mxGeometry relative="1" as="geometry">
            <mxPoint x="435" y="720" as="targetPoint" />
            <mxPoint x="570" y="645" as="sourcePoint" />
          </mxGeometry>
        </mxCell>
        <mxCell id="h3xbIJ4pENWaJq-9NY1t-84" value="" style="rhombus;whiteSpace=wrap;html=1;fontColor=#000000;fillColor=#ffffc0;strokeColor=#ff0000;" parent="1" vertex="1">
          <mxGeometry x="570" y="810" width="80" height="40" as="geometry" />
        </mxCell>
        <mxCell id="h3xbIJ4pENWaJq-9NY1t-85" value="hủy" style="edgeStyle=orthogonalEdgeStyle;html=1;align=left;verticalAlign=bottom;endArrow=open;endSize=8;strokeColor=#ff0000;rounded=0;" parent="1" source="h3xbIJ4pENWaJq-9NY1t-84" target="h3xbIJ4pENWaJq-9NY1t-62" edge="1">
          <mxGeometry x="-0.5254" relative="1" as="geometry">
            <mxPoint x="720" y="840" as="targetPoint" />
            <Array as="points">
              <mxPoint x="325" y="830" />
            </Array>
            <mxPoint as="offset" />
          </mxGeometry>
        </mxCell>
        <mxCell id="h3xbIJ4pENWaJq-9NY1t-86" value="đồng ý xóa" style="edgeStyle=orthogonalEdgeStyle;html=1;align=left;verticalAlign=top;endArrow=open;endSize=8;strokeColor=#ff0000;rounded=0;" parent="1" source="h3xbIJ4pENWaJq-9NY1t-84" target="h3xbIJ4pENWaJq-9NY1t-87" edge="1">
          <mxGeometry x="-1" relative="1" as="geometry">
            <mxPoint x="420" y="840" as="targetPoint" />
          </mxGeometry>
        </mxCell>
        <mxCell id="h3xbIJ4pENWaJq-9NY1t-87" value="Xóa thành công" style="rounded=1;whiteSpace=wrap;html=1;arcSize=40;fontColor=#000000;fillColor=#ffffc0;strokeColor=#ff0000;" parent="1" vertex="1">
          <mxGeometry x="550" y="910" width="120" height="40" as="geometry" />
        </mxCell>
        <mxCell id="h3xbIJ4pENWaJq-9NY1t-88" value="" style="edgeStyle=orthogonalEdgeStyle;html=1;verticalAlign=bottom;endArrow=open;endSize=8;strokeColor=#ff0000;rounded=0;" parent="1" source="h3xbIJ4pENWaJq-9NY1t-87" target="h3xbIJ4pENWaJq-9NY1t-62" edge="1">
          <mxGeometry relative="1" as="geometry">
            <mxPoint x="340" y="940" as="targetPoint" />
          </mxGeometry>
        </mxCell>
        <mxCell id="h3xbIJ4pENWaJq-9NY1t-89" value="Hiển thị thông tin sổ khám" style="rounded=1;whiteSpace=wrap;html=1;arcSize=40;fontColor=#000000;fillColor=#ffffc0;strokeColor=#ff0000;" parent="1" vertex="1">
          <mxGeometry x="740" y="760" width="120" height="40" as="geometry" />
        </mxCell>
        <mxCell id="h3xbIJ4pENWaJq-9NY1t-90" value="" style="edgeStyle=orthogonalEdgeStyle;html=1;verticalAlign=bottom;endArrow=open;endSize=8;strokeColor=#ff0000;rounded=0;" parent="1" source="h3xbIJ4pENWaJq-9NY1t-89" target="h3xbIJ4pENWaJq-9NY1t-62" edge="1">
          <mxGeometry relative="1" as="geometry">
            <mxPoint x="800" y="810" as="targetPoint" />
          </mxGeometry>
        </mxCell>
        <mxCell id="h3xbIJ4pENWaJq-9NY1t-91" value="" style="edgeStyle=orthogonalEdgeStyle;html=1;verticalAlign=bottom;endArrow=open;endSize=8;strokeColor=#ff0000;rounded=0;" parent="1" source="h3xbIJ4pENWaJq-9NY1t-74" target="h3xbIJ4pENWaJq-9NY1t-89" edge="1">
          <mxGeometry relative="1" as="geometry">
            <mxPoint x="620" y="720" as="targetPoint" />
            <mxPoint x="560" y="640" as="sourcePoint" />
          </mxGeometry>
        </mxCell>
        <mxCell id="29fKvCjMz5vi_2pHAFxL-1" value="" style="ellipse;html=1;shape=startState;fillColor=#000000;strokeColor=#ff0000;" vertex="1" parent="1">
          <mxGeometry x="1060" y="50" width="30" height="30" as="geometry" />
        </mxCell>
        <mxCell id="29fKvCjMz5vi_2pHAFxL-2" value="" style="edgeStyle=orthogonalEdgeStyle;html=1;verticalAlign=bottom;endArrow=open;endSize=8;strokeColor=#ff0000;rounded=0;" edge="1" source="29fKvCjMz5vi_2pHAFxL-1" parent="1" target="29fKvCjMz5vi_2pHAFxL-3">
          <mxGeometry relative="1" as="geometry">
            <mxPoint x="1240" y="65" as="targetPoint" />
          </mxGeometry>
        </mxCell>
        <mxCell id="29fKvCjMz5vi_2pHAFxL-3" value="Mở form quản lý&lt;br&gt;danh mục" style="rounded=1;whiteSpace=wrap;html=1;arcSize=40;fontColor=#000000;fillColor=#ffffc0;strokeColor=#ff0000;" vertex="1" parent="1">
          <mxGeometry x="1240" y="45" width="120" height="40" as="geometry" />
        </mxCell>
        <mxCell id="29fKvCjMz5vi_2pHAFxL-4" value="" style="edgeStyle=orthogonalEdgeStyle;html=1;verticalAlign=bottom;endArrow=open;endSize=8;strokeColor=#ff0000;rounded=0;" edge="1" source="29fKvCjMz5vi_2pHAFxL-3" parent="1" target="29fKvCjMz5vi_2pHAFxL-5">
          <mxGeometry relative="1" as="geometry">
            <mxPoint x="1300" y="160" as="targetPoint" />
          </mxGeometry>
        </mxCell>
        <mxCell id="29fKvCjMz5vi_2pHAFxL-5" value="" style="shape=line;html=1;strokeWidth=6;strokeColor=#ff0000;" vertex="1" parent="1">
          <mxGeometry x="1200" y="180" width="200" height="10" as="geometry" />
        </mxCell>
        <mxCell id="29fKvCjMz5vi_2pHAFxL-6" value="" style="edgeStyle=orthogonalEdgeStyle;html=1;verticalAlign=bottom;endArrow=open;endSize=8;strokeColor=#ff0000;rounded=0;" edge="1" source="29fKvCjMz5vi_2pHAFxL-5" parent="1" target="29fKvCjMz5vi_2pHAFxL-7">
          <mxGeometry relative="1" as="geometry">
            <mxPoint x="1300" y="260" as="targetPoint" />
          </mxGeometry>
        </mxCell>
        <mxCell id="29fKvCjMz5vi_2pHAFxL-7" value="Cập nhật thông&lt;br&gt;tin danh mục" style="rounded=1;whiteSpace=wrap;html=1;arcSize=40;fontColor=#000000;fillColor=#ffffc0;strokeColor=#ff0000;" vertex="1" parent="1">
          <mxGeometry x="1240" y="280" width="120" height="40" as="geometry" />
        </mxCell>
        <mxCell id="29fKvCjMz5vi_2pHAFxL-8" value="" style="edgeStyle=orthogonalEdgeStyle;html=1;verticalAlign=bottom;endArrow=open;endSize=8;strokeColor=#ff0000;rounded=0;" edge="1" source="29fKvCjMz5vi_2pHAFxL-7" parent="1" target="29fKvCjMz5vi_2pHAFxL-16">
          <mxGeometry relative="1" as="geometry">
            <mxPoint x="1300" y="380" as="targetPoint" />
            <Array as="points">
              <mxPoint x="1280" y="475" />
            </Array>
          </mxGeometry>
        </mxCell>
        <mxCell id="29fKvCjMz5vi_2pHAFxL-9" value="Xoá danh mục" style="rounded=1;whiteSpace=wrap;html=1;arcSize=40;fontColor=#000000;fillColor=#ffffc0;strokeColor=#ff0000;" vertex="1" parent="1">
          <mxGeometry x="1470" y="280" width="120" height="40" as="geometry" />
        </mxCell>
        <mxCell id="29fKvCjMz5vi_2pHAFxL-10" value="" style="edgeStyle=orthogonalEdgeStyle;html=1;verticalAlign=bottom;endArrow=open;endSize=8;strokeColor=#ff0000;rounded=0;" edge="1" source="29fKvCjMz5vi_2pHAFxL-9" parent="1" target="29fKvCjMz5vi_2pHAFxL-16">
          <mxGeometry relative="1" as="geometry">
            <mxPoint x="1530" y="380" as="targetPoint" />
          </mxGeometry>
        </mxCell>
        <mxCell id="29fKvCjMz5vi_2pHAFxL-12" value="Tra cứu thông tin danh mục" style="rounded=1;whiteSpace=wrap;html=1;arcSize=40;fontColor=#000000;fillColor=#ffffc0;strokeColor=#ff0000;" vertex="1" parent="1">
          <mxGeometry x="1670" y="280" width="120" height="40" as="geometry" />
        </mxCell>
        <mxCell id="29fKvCjMz5vi_2pHAFxL-13" value="" style="edgeStyle=orthogonalEdgeStyle;html=1;verticalAlign=bottom;endArrow=open;endSize=8;strokeColor=#ff0000;rounded=0;" edge="1" source="29fKvCjMz5vi_2pHAFxL-12" parent="1" target="29fKvCjMz5vi_2pHAFxL-16">
          <mxGeometry relative="1" as="geometry">
            <mxPoint x="1730" y="380" as="targetPoint" />
            <Array as="points">
              <mxPoint x="1730" y="475" />
            </Array>
          </mxGeometry>
        </mxCell>
        <mxCell id="29fKvCjMz5vi_2pHAFxL-14" value="Tạo danh mục mới" style="rounded=1;whiteSpace=wrap;html=1;arcSize=40;fontColor=#000000;fillColor=#ffffc0;strokeColor=#ff0000;" vertex="1" parent="1">
          <mxGeometry x="1000" y="280" width="120" height="40" as="geometry" />
        </mxCell>
        <mxCell id="29fKvCjMz5vi_2pHAFxL-15" value="" style="edgeStyle=orthogonalEdgeStyle;html=1;verticalAlign=bottom;endArrow=open;endSize=8;strokeColor=#ff0000;rounded=0;" edge="1" source="29fKvCjMz5vi_2pHAFxL-14" parent="1" target="29fKvCjMz5vi_2pHAFxL-22">
          <mxGeometry relative="1" as="geometry">
            <mxPoint x="1060" y="380" as="targetPoint" />
            <Array as="points">
              <mxPoint x="1060" y="350" />
              <mxPoint x="1061" y="350" />
            </Array>
          </mxGeometry>
        </mxCell>
        <mxCell id="29fKvCjMz5vi_2pHAFxL-16" value="" style="shape=line;html=1;strokeWidth=6;strokeColor=#ff0000;" vertex="1" parent="1">
          <mxGeometry x="1390" y="470" width="200" height="10" as="geometry" />
        </mxCell>
        <mxCell id="29fKvCjMz5vi_2pHAFxL-17" value="" style="edgeStyle=orthogonalEdgeStyle;html=1;verticalAlign=bottom;endArrow=open;endSize=8;strokeColor=#ff0000;rounded=0;" edge="1" source="29fKvCjMz5vi_2pHAFxL-16" parent="1" target="29fKvCjMz5vi_2pHAFxL-20">
          <mxGeometry relative="1" as="geometry">
            <mxPoint x="1490" y="570" as="targetPoint" />
          </mxGeometry>
        </mxCell>
        <mxCell id="29fKvCjMz5vi_2pHAFxL-20" value="Tìm kiếm&lt;br&gt;ma_danh_muc" style="rhombus;whiteSpace=wrap;html=1;fontColor=#000000;fillColor=#ffffc0;strokeColor=#ff0000;" vertex="1" parent="1">
          <mxGeometry x="1490" y="582.5" width="110" height="95" as="geometry" />
        </mxCell>
        <mxCell id="29fKvCjMz5vi_2pHAFxL-21" value="" style="edgeStyle=orthogonalEdgeStyle;html=1;verticalAlign=bottom;endArrow=open;endSize=8;strokeColor=#ff0000;rounded=0;" edge="1" parent="1" source="29fKvCjMz5vi_2pHAFxL-5" target="29fKvCjMz5vi_2pHAFxL-14">
          <mxGeometry relative="1" as="geometry">
            <mxPoint x="1310" y="290" as="targetPoint" />
            <mxPoint x="1310" y="200" as="sourcePoint" />
          </mxGeometry>
        </mxCell>
        <mxCell id="29fKvCjMz5vi_2pHAFxL-22" value="Nhập thông tin&lt;br&gt;danh mục" style="rounded=1;whiteSpace=wrap;html=1;arcSize=40;fontColor=#000000;fillColor=#ffffc0;strokeColor=#ff0000;" vertex="1" parent="1">
          <mxGeometry x="1000" y="390" width="120" height="40" as="geometry" />
        </mxCell>
        <mxCell id="29fKvCjMz5vi_2pHAFxL-23" value="" style="edgeStyle=orthogonalEdgeStyle;html=1;verticalAlign=bottom;endArrow=open;endSize=8;strokeColor=#ff0000;rounded=0;" edge="1" source="29fKvCjMz5vi_2pHAFxL-22" parent="1" target="29fKvCjMz5vi_2pHAFxL-24">
          <mxGeometry relative="1" as="geometry">
            <mxPoint x="1060" y="490" as="targetPoint" />
          </mxGeometry>
        </mxCell>
        <mxCell id="29fKvCjMz5vi_2pHAFxL-24" value="Xác nhận lưu" style="rhombus;whiteSpace=wrap;html=1;fontColor=#000000;fillColor=#ffffc0;strokeColor=#ff0000;" vertex="1" parent="1">
          <mxGeometry x="1130" y="530" width="110" height="80" as="geometry" />
        </mxCell>
        <mxCell id="29fKvCjMz5vi_2pHAFxL-27" value="Lưu danh mục mới&lt;br&gt;thành công" style="rounded=1;whiteSpace=wrap;html=1;arcSize=40;fontColor=#000000;fillColor=#ffffc0;strokeColor=#ff0000;" vertex="1" parent="1">
          <mxGeometry x="940" y="710" width="120" height="40" as="geometry" />
        </mxCell>
        <mxCell id="29fKvCjMz5vi_2pHAFxL-28" value="" style="edgeStyle=orthogonalEdgeStyle;html=1;verticalAlign=bottom;endArrow=open;endSize=8;strokeColor=#ff0000;rounded=0;" edge="1" source="29fKvCjMz5vi_2pHAFxL-27" parent="1" target="29fKvCjMz5vi_2pHAFxL-30">
          <mxGeometry relative="1" as="geometry">
            <mxPoint x="1060" y="820" as="targetPoint" />
            <Array as="points">
              <mxPoint x="1000" y="830" />
            </Array>
          </mxGeometry>
        </mxCell>
        <mxCell id="29fKvCjMz5vi_2pHAFxL-29" value="" style="edgeStyle=orthogonalEdgeStyle;html=1;verticalAlign=bottom;endArrow=open;endSize=8;strokeColor=#ff0000;rounded=0;" edge="1" parent="1" source="29fKvCjMz5vi_2pHAFxL-24" target="29fKvCjMz5vi_2pHAFxL-27">
          <mxGeometry relative="1" as="geometry">
            <mxPoint x="1065" y="800" as="targetPoint" />
            <mxPoint x="1065" y="740" as="sourcePoint" />
          </mxGeometry>
        </mxCell>
        <mxCell id="29fKvCjMz5vi_2pHAFxL-31" value="Đồng ý lưu" style="edgeLabel;html=1;align=center;verticalAlign=middle;resizable=0;points=[];" vertex="1" connectable="0" parent="29fKvCjMz5vi_2pHAFxL-29">
          <mxGeometry x="-0.1383" y="-1" relative="1" as="geometry">
            <mxPoint as="offset" />
          </mxGeometry>
        </mxCell>
        <mxCell id="29fKvCjMz5vi_2pHAFxL-30" value="" style="ellipse;html=1;shape=endState;fillColor=#000000;strokeColor=#ff0000;" vertex="1" parent="1">
          <mxGeometry x="1170" y="1000" width="30" height="30" as="geometry" />
        </mxCell>
        <mxCell id="29fKvCjMz5vi_2pHAFxL-32" value="" style="edgeStyle=orthogonalEdgeStyle;html=1;verticalAlign=bottom;endArrow=open;endSize=8;strokeColor=#ff0000;rounded=0;" edge="1" parent="1" source="29fKvCjMz5vi_2pHAFxL-24" target="29fKvCjMz5vi_2pHAFxL-30">
          <mxGeometry relative="1" as="geometry">
            <mxPoint x="1070" y="530" as="targetPoint" />
            <mxPoint x="1070" y="440" as="sourcePoint" />
          </mxGeometry>
        </mxCell>
        <mxCell id="29fKvCjMz5vi_2pHAFxL-33" value="Huỷ" style="edgeLabel;html=1;align=center;verticalAlign=middle;resizable=0;points=[];" vertex="1" connectable="0" parent="29fKvCjMz5vi_2pHAFxL-32">
          <mxGeometry x="-0.6297" y="-4" relative="1" as="geometry">
            <mxPoint as="offset" />
          </mxGeometry>
        </mxCell>
        <mxCell id="29fKvCjMz5vi_2pHAFxL-34" value="" style="edgeStyle=orthogonalEdgeStyle;html=1;verticalAlign=bottom;endArrow=open;endSize=8;strokeColor=#ff0000;rounded=0;" edge="1" parent="1" source="29fKvCjMz5vi_2pHAFxL-20" target="29fKvCjMz5vi_2pHAFxL-30">
          <mxGeometry relative="1" as="geometry">
            <mxPoint x="1195" y="825" as="targetPoint" />
            <mxPoint x="1195" y="620" as="sourcePoint" />
            <Array as="points">
              <mxPoint x="1340" y="630" />
              <mxPoint x="1340" y="830" />
            </Array>
          </mxGeometry>
        </mxCell>
        <mxCell id="29fKvCjMz5vi_2pHAFxL-35" value="K tìm thấy" style="edgeLabel;html=1;align=center;verticalAlign=middle;resizable=0;points=[];" vertex="1" connectable="0" parent="29fKvCjMz5vi_2pHAFxL-34">
          <mxGeometry x="-0.6297" y="-4" relative="1" as="geometry">
            <mxPoint as="offset" />
          </mxGeometry>
        </mxCell>
        <mxCell id="29fKvCjMz5vi_2pHAFxL-39" value="Cập nhật thông tin&amp;nbsp;&lt;br&gt;danh mục" style="rounded=1;whiteSpace=wrap;html=1;arcSize=40;fontColor=#000000;fillColor=#ffffc0;strokeColor=#ff0000;" vertex="1" parent="1">
          <mxGeometry x="1370" y="795" width="120" height="40" as="geometry" />
        </mxCell>
        <mxCell id="29fKvCjMz5vi_2pHAFxL-40" value="" style="edgeStyle=orthogonalEdgeStyle;html=1;verticalAlign=bottom;endArrow=open;endSize=8;strokeColor=#ff0000;rounded=0;" edge="1" source="29fKvCjMz5vi_2pHAFxL-39" parent="1" target="29fKvCjMz5vi_2pHAFxL-24">
          <mxGeometry relative="1" as="geometry">
            <mxPoint x="1430" y="980" as="targetPoint" />
            <Array as="points">
              <mxPoint x="1300" y="815" />
              <mxPoint x="1300" y="570" />
            </Array>
          </mxGeometry>
        </mxCell>
        <mxCell id="29fKvCjMz5vi_2pHAFxL-41" value="" style="edgeStyle=orthogonalEdgeStyle;html=1;verticalAlign=bottom;endArrow=open;endSize=8;strokeColor=#ff0000;rounded=0;" edge="1" parent="1" source="29fKvCjMz5vi_2pHAFxL-20" target="29fKvCjMz5vi_2pHAFxL-42">
          <mxGeometry relative="1" as="geometry">
            <mxPoint x="1545" y="750" as="targetPoint" />
            <mxPoint x="1500" y="490" as="sourcePoint" />
          </mxGeometry>
        </mxCell>
        <mxCell id="29fKvCjMz5vi_2pHAFxL-44" value="Tìm thấy" style="edgeLabel;html=1;align=center;verticalAlign=middle;resizable=0;points=[];" vertex="1" connectable="0" parent="29fKvCjMz5vi_2pHAFxL-41">
          <mxGeometry x="-0.1372" relative="1" as="geometry">
            <mxPoint as="offset" />
          </mxGeometry>
        </mxCell>
        <mxCell id="29fKvCjMz5vi_2pHAFxL-42" value="" style="shape=line;html=1;strokeWidth=6;strokeColor=#ff0000;" vertex="1" parent="1">
          <mxGeometry x="1445" y="750" width="200" height="10" as="geometry" />
        </mxCell>
        <mxCell id="29fKvCjMz5vi_2pHAFxL-43" value="" style="edgeStyle=orthogonalEdgeStyle;html=1;verticalAlign=bottom;endArrow=open;endSize=8;strokeColor=#ff0000;rounded=0;" edge="1" source="29fKvCjMz5vi_2pHAFxL-42" parent="1" target="29fKvCjMz5vi_2pHAFxL-39">
          <mxGeometry relative="1" as="geometry">
            <mxPoint x="1550" y="830" as="targetPoint" />
            <Array as="points">
              <mxPoint x="1430" y="755" />
            </Array>
          </mxGeometry>
        </mxCell>
        <mxCell id="29fKvCjMz5vi_2pHAFxL-45" value="Xoá danh mục" style="rounded=1;whiteSpace=wrap;html=1;arcSize=40;fontColor=#000000;fillColor=#ffffc0;strokeColor=#ff0000;" vertex="1" parent="1">
          <mxGeometry x="1540" y="795" width="120" height="40" as="geometry" />
        </mxCell>
        <mxCell id="29fKvCjMz5vi_2pHAFxL-46" value="" style="edgeStyle=orthogonalEdgeStyle;html=1;verticalAlign=bottom;endArrow=open;endSize=8;strokeColor=#ff0000;rounded=0;" edge="1" source="29fKvCjMz5vi_2pHAFxL-45" parent="1" target="29fKvCjMz5vi_2pHAFxL-47">
          <mxGeometry relative="1" as="geometry">
            <mxPoint x="1600" y="895" as="targetPoint" />
          </mxGeometry>
        </mxCell>
        <mxCell id="29fKvCjMz5vi_2pHAFxL-47" value="Xác nhận lưu" style="rhombus;whiteSpace=wrap;html=1;fontColor=#000000;fillColor=#ffffc0;strokeColor=#ff0000;" vertex="1" parent="1">
          <mxGeometry x="1545" y="900" width="110" height="80" as="geometry" />
        </mxCell>
        <mxCell id="29fKvCjMz5vi_2pHAFxL-48" value="" style="edgeStyle=orthogonalEdgeStyle;html=1;verticalAlign=bottom;endArrow=open;endSize=8;strokeColor=#ff0000;rounded=0;" edge="1" parent="1" source="29fKvCjMz5vi_2pHAFxL-47" target="29fKvCjMz5vi_2pHAFxL-30">
          <mxGeometry relative="1" as="geometry">
            <mxPoint x="1610" y="910" as="targetPoint" />
            <mxPoint x="1610" y="845" as="sourcePoint" />
            <Array as="points">
              <mxPoint x="1185" y="940" />
            </Array>
          </mxGeometry>
        </mxCell>
        <mxCell id="29fKvCjMz5vi_2pHAFxL-49" value="Huỷ" style="edgeLabel;html=1;align=center;verticalAlign=middle;resizable=0;points=[];" vertex="1" connectable="0" parent="29fKvCjMz5vi_2pHAFxL-48">
          <mxGeometry x="-0.3607" y="-2" relative="1" as="geometry">
            <mxPoint as="offset" />
          </mxGeometry>
        </mxCell>
        <mxCell id="29fKvCjMz5vi_2pHAFxL-50" value="" style="edgeStyle=orthogonalEdgeStyle;html=1;verticalAlign=bottom;endArrow=open;endSize=8;strokeColor=#ff0000;rounded=0;" edge="1" parent="1" source="29fKvCjMz5vi_2pHAFxL-47" target="29fKvCjMz5vi_2pHAFxL-30">
          <mxGeometry relative="1" as="geometry">
            <mxPoint x="1195" y="1010" as="targetPoint" />
            <mxPoint x="1555" y="950" as="sourcePoint" />
            <Array as="points">
              <mxPoint x="1600" y="1015" />
            </Array>
          </mxGeometry>
        </mxCell>
        <mxCell id="29fKvCjMz5vi_2pHAFxL-51" value="Đồng ý xoá" style="edgeLabel;html=1;align=center;verticalAlign=middle;resizable=0;points=[];" vertex="1" connectable="0" parent="29fKvCjMz5vi_2pHAFxL-50">
          <mxGeometry x="-0.3607" y="-2" relative="1" as="geometry">
            <mxPoint as="offset" />
          </mxGeometry>
        </mxCell>
        <mxCell id="29fKvCjMz5vi_2pHAFxL-55" value="" style="edgeStyle=orthogonalEdgeStyle;html=1;verticalAlign=bottom;endArrow=open;endSize=8;strokeColor=#ff0000;rounded=0;" edge="1" parent="1" source="29fKvCjMz5vi_2pHAFxL-42" target="29fKvCjMz5vi_2pHAFxL-45">
          <mxGeometry relative="1" as="geometry">
            <mxPoint x="1599.5" y="810" as="targetPoint" />
            <mxPoint x="1599.5" y="760" as="sourcePoint" />
          </mxGeometry>
        </mxCell>
        <mxCell id="29fKvCjMz5vi_2pHAFxL-56" value="Hiển thị thông tin&lt;br&gt;danh mục" style="rounded=1;whiteSpace=wrap;html=1;arcSize=40;fontColor=#000000;fillColor=#ffffc0;strokeColor=#ff0000;" vertex="1" parent="1">
          <mxGeometry x="1730" y="800" width="120" height="40" as="geometry" />
        </mxCell>
        <mxCell id="29fKvCjMz5vi_2pHAFxL-57" value="" style="edgeStyle=orthogonalEdgeStyle;html=1;verticalAlign=bottom;endArrow=open;endSize=8;strokeColor=#ff0000;rounded=0;" edge="1" parent="1" source="29fKvCjMz5vi_2pHAFxL-42" target="29fKvCjMz5vi_2pHAFxL-56">
          <mxGeometry relative="1" as="geometry">
            <mxPoint x="1610" y="805" as="targetPoint" />
            <mxPoint x="1555" y="770" as="sourcePoint" />
          </mxGeometry>
        </mxCell>
        <mxCell id="29fKvCjMz5vi_2pHAFxL-58" value="" style="edgeStyle=orthogonalEdgeStyle;html=1;verticalAlign=bottom;endArrow=open;endSize=8;strokeColor=#ff0000;rounded=0;" edge="1" parent="1" source="29fKvCjMz5vi_2pHAFxL-56" target="29fKvCjMz5vi_2pHAFxL-30">
          <mxGeometry relative="1" as="geometry">
            <mxPoint x="1800" y="810" as="targetPoint" />
            <mxPoint x="1655" y="765" as="sourcePoint" />
            <Array as="points">
              <mxPoint x="1790" y="870" />
              <mxPoint x="1185" y="870" />
            </Array>
          </mxGeometry>
        </mxCell>
        <mxCell id="29fKvCjMz5vi_2pHAFxL-59" value="" style="edgeStyle=orthogonalEdgeStyle;html=1;verticalAlign=bottom;endArrow=open;endSize=8;strokeColor=#ff0000;rounded=0;" edge="1" parent="1" source="29fKvCjMz5vi_2pHAFxL-5" target="29fKvCjMz5vi_2pHAFxL-12">
          <mxGeometry relative="1" as="geometry">
            <mxPoint x="1514.97" y="230" as="targetPoint" />
            <mxPoint x="1654.97" y="75" as="sourcePoint" />
            <Array as="points">
              <mxPoint x="1730" y="185" />
            </Array>
          </mxGeometry>
        </mxCell>
        <mxCell id="29fKvCjMz5vi_2pHAFxL-61" value="" style="edgeStyle=orthogonalEdgeStyle;html=1;verticalAlign=bottom;endArrow=open;endSize=8;strokeColor=#ff0000;rounded=0;" edge="1" parent="1" source="29fKvCjMz5vi_2pHAFxL-5" target="29fKvCjMz5vi_2pHAFxL-9">
          <mxGeometry relative="1" as="geometry">
            <mxPoint x="1740" y="290" as="targetPoint" />
            <mxPoint x="1410" y="195" as="sourcePoint" />
            <Array as="points">
              <mxPoint x="1530" y="185" />
            </Array>
          </mxGeometry>
        </mxCell>
        <mxCell id="29fKvCjMz5vi_2pHAFxL-62" value="" style="ellipse;html=1;shape=startState;fillColor=#000000;strokeColor=#ff0000;" vertex="1" parent="1">
          <mxGeometry x="2120" y="45" width="30" height="30" as="geometry" />
        </mxCell>
        <mxCell id="29fKvCjMz5vi_2pHAFxL-63" value="" style="edgeStyle=orthogonalEdgeStyle;html=1;verticalAlign=bottom;endArrow=open;endSize=8;strokeColor=#ff0000;rounded=0;" edge="1" source="29fKvCjMz5vi_2pHAFxL-62" target="29fKvCjMz5vi_2pHAFxL-64" parent="1">
          <mxGeometry relative="1" as="geometry">
            <mxPoint x="2300" y="60" as="targetPoint" />
          </mxGeometry>
        </mxCell>
        <mxCell id="29fKvCjMz5vi_2pHAFxL-64" value="Mở form quản lý giao dịch" style="rounded=1;whiteSpace=wrap;html=1;arcSize=40;fontColor=#000000;fillColor=#ffffc0;strokeColor=#ff0000;" vertex="1" parent="1">
          <mxGeometry x="2300" y="40" width="120" height="40" as="geometry" />
        </mxCell>
        <mxCell id="29fKvCjMz5vi_2pHAFxL-65" value="" style="edgeStyle=orthogonalEdgeStyle;html=1;verticalAlign=bottom;endArrow=open;endSize=8;strokeColor=#ff0000;rounded=0;" edge="1" source="29fKvCjMz5vi_2pHAFxL-64" target="29fKvCjMz5vi_2pHAFxL-66" parent="1">
          <mxGeometry relative="1" as="geometry">
            <mxPoint x="2360" y="155" as="targetPoint" />
          </mxGeometry>
        </mxCell>
        <mxCell id="29fKvCjMz5vi_2pHAFxL-66" value="" style="shape=line;html=1;strokeWidth=6;strokeColor=#ff0000;" vertex="1" parent="1">
          <mxGeometry x="2260" y="175" width="200" height="10" as="geometry" />
        </mxCell>
        <mxCell id="29fKvCjMz5vi_2pHAFxL-67" value="" style="edgeStyle=orthogonalEdgeStyle;html=1;verticalAlign=bottom;endArrow=open;endSize=8;strokeColor=#ff0000;rounded=0;" edge="1" source="29fKvCjMz5vi_2pHAFxL-66" target="29fKvCjMz5vi_2pHAFxL-68" parent="1">
          <mxGeometry relative="1" as="geometry">
            <mxPoint x="2360" y="255" as="targetPoint" />
          </mxGeometry>
        </mxCell>
        <mxCell id="29fKvCjMz5vi_2pHAFxL-68" value="Cập nhật thông tin&lt;br&gt;giao dịch" style="rounded=1;whiteSpace=wrap;html=1;arcSize=40;fontColor=#000000;fillColor=#ffffc0;strokeColor=#ff0000;" vertex="1" parent="1">
          <mxGeometry x="2300" y="275" width="120" height="40" as="geometry" />
        </mxCell>
        <mxCell id="29fKvCjMz5vi_2pHAFxL-69" value="" style="edgeStyle=orthogonalEdgeStyle;html=1;verticalAlign=bottom;endArrow=open;endSize=8;strokeColor=#ff0000;rounded=0;" edge="1" source="29fKvCjMz5vi_2pHAFxL-68" target="29fKvCjMz5vi_2pHAFxL-76" parent="1">
          <mxGeometry relative="1" as="geometry">
            <mxPoint x="2360" y="375" as="targetPoint" />
            <Array as="points">
              <mxPoint x="2340" y="470" />
            </Array>
          </mxGeometry>
        </mxCell>
        <mxCell id="29fKvCjMz5vi_2pHAFxL-70" value="Xoá giao dịch" style="rounded=1;whiteSpace=wrap;html=1;arcSize=40;fontColor=#000000;fillColor=#ffffc0;strokeColor=#ff0000;" vertex="1" parent="1">
          <mxGeometry x="2530" y="275" width="120" height="40" as="geometry" />
        </mxCell>
        <mxCell id="29fKvCjMz5vi_2pHAFxL-71" value="" style="edgeStyle=orthogonalEdgeStyle;html=1;verticalAlign=bottom;endArrow=open;endSize=8;strokeColor=#ff0000;rounded=0;" edge="1" source="29fKvCjMz5vi_2pHAFxL-70" target="29fKvCjMz5vi_2pHAFxL-76" parent="1">
          <mxGeometry relative="1" as="geometry">
            <mxPoint x="2590" y="375" as="targetPoint" />
          </mxGeometry>
        </mxCell>
        <mxCell id="29fKvCjMz5vi_2pHAFxL-72" value="Tra cứu thông tin&lt;br&gt;giao dịch" style="rounded=1;whiteSpace=wrap;html=1;arcSize=40;fontColor=#000000;fillColor=#ffffc0;strokeColor=#ff0000;" vertex="1" parent="1">
          <mxGeometry x="2730" y="275" width="120" height="40" as="geometry" />
        </mxCell>
        <mxCell id="29fKvCjMz5vi_2pHAFxL-73" value="" style="edgeStyle=orthogonalEdgeStyle;html=1;verticalAlign=bottom;endArrow=open;endSize=8;strokeColor=#ff0000;rounded=0;" edge="1" source="29fKvCjMz5vi_2pHAFxL-72" target="29fKvCjMz5vi_2pHAFxL-76" parent="1">
          <mxGeometry relative="1" as="geometry">
            <mxPoint x="2790" y="375" as="targetPoint" />
            <Array as="points">
              <mxPoint x="2790" y="470" />
            </Array>
          </mxGeometry>
        </mxCell>
        <mxCell id="29fKvCjMz5vi_2pHAFxL-74" value="Tạo giao dịch mới" style="rounded=1;whiteSpace=wrap;html=1;arcSize=40;fontColor=#000000;fillColor=#ffffc0;strokeColor=#ff0000;" vertex="1" parent="1">
          <mxGeometry x="2060" y="275" width="120" height="40" as="geometry" />
        </mxCell>
        <mxCell id="29fKvCjMz5vi_2pHAFxL-75" value="" style="edgeStyle=orthogonalEdgeStyle;html=1;verticalAlign=bottom;endArrow=open;endSize=8;strokeColor=#ff0000;rounded=0;" edge="1" source="29fKvCjMz5vi_2pHAFxL-74" target="29fKvCjMz5vi_2pHAFxL-80" parent="1">
          <mxGeometry relative="1" as="geometry">
            <mxPoint x="2120" y="375" as="targetPoint" />
            <Array as="points">
              <mxPoint x="2120" y="345" />
              <mxPoint x="2121" y="345" />
            </Array>
          </mxGeometry>
        </mxCell>
        <mxCell id="29fKvCjMz5vi_2pHAFxL-76" value="" style="shape=line;html=1;strokeWidth=6;strokeColor=#ff0000;" vertex="1" parent="1">
          <mxGeometry x="2450" y="465" width="200" height="10" as="geometry" />
        </mxCell>
        <mxCell id="29fKvCjMz5vi_2pHAFxL-77" value="" style="edgeStyle=orthogonalEdgeStyle;html=1;verticalAlign=bottom;endArrow=open;endSize=8;strokeColor=#ff0000;rounded=0;" edge="1" source="29fKvCjMz5vi_2pHAFxL-76" target="29fKvCjMz5vi_2pHAFxL-78" parent="1">
          <mxGeometry relative="1" as="geometry">
            <mxPoint x="2550" y="565" as="targetPoint" />
          </mxGeometry>
        </mxCell>
        <mxCell id="29fKvCjMz5vi_2pHAFxL-78" value="Tìm kiếm&amp;nbsp;&lt;br&gt;ma_giao_dich" style="rhombus;whiteSpace=wrap;html=1;fontColor=#000000;fillColor=#ffffc0;strokeColor=#ff0000;" vertex="1" parent="1">
          <mxGeometry x="2550" y="577.5" width="110" height="95" as="geometry" />
        </mxCell>
        <mxCell id="29fKvCjMz5vi_2pHAFxL-79" value="" style="edgeStyle=orthogonalEdgeStyle;html=1;verticalAlign=bottom;endArrow=open;endSize=8;strokeColor=#ff0000;rounded=0;" edge="1" source="29fKvCjMz5vi_2pHAFxL-66" target="29fKvCjMz5vi_2pHAFxL-74" parent="1">
          <mxGeometry relative="1" as="geometry">
            <mxPoint x="2370" y="285" as="targetPoint" />
            <mxPoint x="2370" y="195" as="sourcePoint" />
          </mxGeometry>
        </mxCell>
        <mxCell id="29fKvCjMz5vi_2pHAFxL-80" value="Nhập thông tin&lt;br&gt;giao dịch" style="rounded=1;whiteSpace=wrap;html=1;arcSize=40;fontColor=#000000;fillColor=#ffffc0;strokeColor=#ff0000;" vertex="1" parent="1">
          <mxGeometry x="2060" y="385" width="120" height="40" as="geometry" />
        </mxCell>
        <mxCell id="29fKvCjMz5vi_2pHAFxL-81" value="" style="edgeStyle=orthogonalEdgeStyle;html=1;verticalAlign=bottom;endArrow=open;endSize=8;strokeColor=#ff0000;rounded=0;" edge="1" source="29fKvCjMz5vi_2pHAFxL-80" target="29fKvCjMz5vi_2pHAFxL-82" parent="1">
          <mxGeometry relative="1" as="geometry">
            <mxPoint x="2120" y="485" as="targetPoint" />
          </mxGeometry>
        </mxCell>
        <mxCell id="29fKvCjMz5vi_2pHAFxL-82" value="Xác nhận lưu" style="rhombus;whiteSpace=wrap;html=1;fontColor=#000000;fillColor=#ffffc0;strokeColor=#ff0000;" vertex="1" parent="1">
          <mxGeometry x="2190" y="525" width="110" height="80" as="geometry" />
        </mxCell>
        <mxCell id="29fKvCjMz5vi_2pHAFxL-83" value="Lưu giao dịch thành&lt;br&gt;công" style="rounded=1;whiteSpace=wrap;html=1;arcSize=40;fontColor=#000000;fillColor=#ffffc0;strokeColor=#ff0000;" vertex="1" parent="1">
          <mxGeometry x="2000" y="705" width="120" height="40" as="geometry" />
        </mxCell>
        <mxCell id="29fKvCjMz5vi_2pHAFxL-84" value="" style="edgeStyle=orthogonalEdgeStyle;html=1;verticalAlign=bottom;endArrow=open;endSize=8;strokeColor=#ff0000;rounded=0;" edge="1" source="29fKvCjMz5vi_2pHAFxL-83" target="29fKvCjMz5vi_2pHAFxL-87" parent="1">
          <mxGeometry relative="1" as="geometry">
            <mxPoint x="2120" y="815" as="targetPoint" />
            <Array as="points">
              <mxPoint x="2060" y="825" />
            </Array>
          </mxGeometry>
        </mxCell>
        <mxCell id="29fKvCjMz5vi_2pHAFxL-85" value="" style="edgeStyle=orthogonalEdgeStyle;html=1;verticalAlign=bottom;endArrow=open;endSize=8;strokeColor=#ff0000;rounded=0;" edge="1" source="29fKvCjMz5vi_2pHAFxL-82" target="29fKvCjMz5vi_2pHAFxL-83" parent="1">
          <mxGeometry relative="1" as="geometry">
            <mxPoint x="2125" y="795" as="targetPoint" />
            <mxPoint x="2125" y="735" as="sourcePoint" />
          </mxGeometry>
        </mxCell>
        <mxCell id="29fKvCjMz5vi_2pHAFxL-86" value="Đồng ý lưu" style="edgeLabel;html=1;align=center;verticalAlign=middle;resizable=0;points=[];" vertex="1" connectable="0" parent="29fKvCjMz5vi_2pHAFxL-85">
          <mxGeometry x="-0.1383" y="-1" relative="1" as="geometry">
            <mxPoint as="offset" />
          </mxGeometry>
        </mxCell>
        <mxCell id="29fKvCjMz5vi_2pHAFxL-87" value="" style="ellipse;html=1;shape=endState;fillColor=#000000;strokeColor=#ff0000;" vertex="1" parent="1">
          <mxGeometry x="2230" y="995" width="30" height="30" as="geometry" />
        </mxCell>
        <mxCell id="29fKvCjMz5vi_2pHAFxL-88" value="" style="edgeStyle=orthogonalEdgeStyle;html=1;verticalAlign=bottom;endArrow=open;endSize=8;strokeColor=#ff0000;rounded=0;" edge="1" source="29fKvCjMz5vi_2pHAFxL-82" target="29fKvCjMz5vi_2pHAFxL-87" parent="1">
          <mxGeometry relative="1" as="geometry">
            <mxPoint x="2130" y="525" as="targetPoint" />
            <mxPoint x="2130" y="435" as="sourcePoint" />
          </mxGeometry>
        </mxCell>
        <mxCell id="29fKvCjMz5vi_2pHAFxL-89" value="Huỷ" style="edgeLabel;html=1;align=center;verticalAlign=middle;resizable=0;points=[];" vertex="1" connectable="0" parent="29fKvCjMz5vi_2pHAFxL-88">
          <mxGeometry x="-0.6297" y="-4" relative="1" as="geometry">
            <mxPoint as="offset" />
          </mxGeometry>
        </mxCell>
        <mxCell id="29fKvCjMz5vi_2pHAFxL-90" value="" style="edgeStyle=orthogonalEdgeStyle;html=1;verticalAlign=bottom;endArrow=open;endSize=8;strokeColor=#ff0000;rounded=0;" edge="1" source="29fKvCjMz5vi_2pHAFxL-78" target="29fKvCjMz5vi_2pHAFxL-87" parent="1">
          <mxGeometry relative="1" as="geometry">
            <mxPoint x="2255" y="820" as="targetPoint" />
            <mxPoint x="2255" y="615" as="sourcePoint" />
            <Array as="points">
              <mxPoint x="2400" y="625" />
              <mxPoint x="2400" y="825" />
            </Array>
          </mxGeometry>
        </mxCell>
        <mxCell id="29fKvCjMz5vi_2pHAFxL-91" value="K tìm thấy" style="edgeLabel;html=1;align=center;verticalAlign=middle;resizable=0;points=[];" vertex="1" connectable="0" parent="29fKvCjMz5vi_2pHAFxL-90">
          <mxGeometry x="-0.6297" y="-4" relative="1" as="geometry">
            <mxPoint as="offset" />
          </mxGeometry>
        </mxCell>
        <mxCell id="29fKvCjMz5vi_2pHAFxL-92" value="Cập nhật thông tin&lt;br&gt;giao dịch" style="rounded=1;whiteSpace=wrap;html=1;arcSize=40;fontColor=#000000;fillColor=#ffffc0;strokeColor=#ff0000;" vertex="1" parent="1">
          <mxGeometry x="2430" y="790" width="120" height="40" as="geometry" />
        </mxCell>
        <mxCell id="29fKvCjMz5vi_2pHAFxL-93" value="" style="edgeStyle=orthogonalEdgeStyle;html=1;verticalAlign=bottom;endArrow=open;endSize=8;strokeColor=#ff0000;rounded=0;" edge="1" source="29fKvCjMz5vi_2pHAFxL-92" target="29fKvCjMz5vi_2pHAFxL-82" parent="1">
          <mxGeometry relative="1" as="geometry">
            <mxPoint x="2490" y="975" as="targetPoint" />
            <Array as="points">
              <mxPoint x="2360" y="810" />
              <mxPoint x="2360" y="565" />
            </Array>
          </mxGeometry>
        </mxCell>
        <mxCell id="29fKvCjMz5vi_2pHAFxL-94" value="" style="edgeStyle=orthogonalEdgeStyle;html=1;verticalAlign=bottom;endArrow=open;endSize=8;strokeColor=#ff0000;rounded=0;" edge="1" source="29fKvCjMz5vi_2pHAFxL-78" target="29fKvCjMz5vi_2pHAFxL-96" parent="1">
          <mxGeometry relative="1" as="geometry">
            <mxPoint x="2605" y="745" as="targetPoint" />
            <mxPoint x="2560" y="485" as="sourcePoint" />
          </mxGeometry>
        </mxCell>
        <mxCell id="29fKvCjMz5vi_2pHAFxL-95" value="Tìm thấy" style="edgeLabel;html=1;align=center;verticalAlign=middle;resizable=0;points=[];" vertex="1" connectable="0" parent="29fKvCjMz5vi_2pHAFxL-94">
          <mxGeometry x="-0.1372" relative="1" as="geometry">
            <mxPoint as="offset" />
          </mxGeometry>
        </mxCell>
        <mxCell id="29fKvCjMz5vi_2pHAFxL-96" value="" style="shape=line;html=1;strokeWidth=6;strokeColor=#ff0000;" vertex="1" parent="1">
          <mxGeometry x="2505" y="745" width="200" height="10" as="geometry" />
        </mxCell>
        <mxCell id="29fKvCjMz5vi_2pHAFxL-97" value="" style="edgeStyle=orthogonalEdgeStyle;html=1;verticalAlign=bottom;endArrow=open;endSize=8;strokeColor=#ff0000;rounded=0;" edge="1" source="29fKvCjMz5vi_2pHAFxL-96" target="29fKvCjMz5vi_2pHAFxL-92" parent="1">
          <mxGeometry relative="1" as="geometry">
            <mxPoint x="2610" y="825" as="targetPoint" />
            <Array as="points">
              <mxPoint x="2490" y="750" />
            </Array>
          </mxGeometry>
        </mxCell>
        <mxCell id="29fKvCjMz5vi_2pHAFxL-98" value="Xoá giao dịch" style="rounded=1;whiteSpace=wrap;html=1;arcSize=40;fontColor=#000000;fillColor=#ffffc0;strokeColor=#ff0000;" vertex="1" parent="1">
          <mxGeometry x="2600" y="790" width="120" height="40" as="geometry" />
        </mxCell>
        <mxCell id="29fKvCjMz5vi_2pHAFxL-99" value="" style="edgeStyle=orthogonalEdgeStyle;html=1;verticalAlign=bottom;endArrow=open;endSize=8;strokeColor=#ff0000;rounded=0;" edge="1" source="29fKvCjMz5vi_2pHAFxL-98" target="29fKvCjMz5vi_2pHAFxL-100" parent="1">
          <mxGeometry relative="1" as="geometry">
            <mxPoint x="2660" y="890" as="targetPoint" />
          </mxGeometry>
        </mxCell>
        <mxCell id="29fKvCjMz5vi_2pHAFxL-100" value="Xác nhận lưu" style="rhombus;whiteSpace=wrap;html=1;fontColor=#000000;fillColor=#ffffc0;strokeColor=#ff0000;" vertex="1" parent="1">
          <mxGeometry x="2605" y="895" width="110" height="80" as="geometry" />
        </mxCell>
        <mxCell id="29fKvCjMz5vi_2pHAFxL-101" value="" style="edgeStyle=orthogonalEdgeStyle;html=1;verticalAlign=bottom;endArrow=open;endSize=8;strokeColor=#ff0000;rounded=0;" edge="1" source="29fKvCjMz5vi_2pHAFxL-100" target="29fKvCjMz5vi_2pHAFxL-87" parent="1">
          <mxGeometry relative="1" as="geometry">
            <mxPoint x="2670" y="905" as="targetPoint" />
            <mxPoint x="2670" y="840" as="sourcePoint" />
            <Array as="points">
              <mxPoint x="2245" y="935" />
            </Array>
          </mxGeometry>
        </mxCell>
        <mxCell id="29fKvCjMz5vi_2pHAFxL-102" value="Huỷ" style="edgeLabel;html=1;align=center;verticalAlign=middle;resizable=0;points=[];" vertex="1" connectable="0" parent="29fKvCjMz5vi_2pHAFxL-101">
          <mxGeometry x="-0.3607" y="-2" relative="1" as="geometry">
            <mxPoint as="offset" />
          </mxGeometry>
        </mxCell>
        <mxCell id="29fKvCjMz5vi_2pHAFxL-103" value="" style="edgeStyle=orthogonalEdgeStyle;html=1;verticalAlign=bottom;endArrow=open;endSize=8;strokeColor=#ff0000;rounded=0;" edge="1" source="29fKvCjMz5vi_2pHAFxL-100" target="29fKvCjMz5vi_2pHAFxL-87" parent="1">
          <mxGeometry relative="1" as="geometry">
            <mxPoint x="2255" y="1005" as="targetPoint" />
            <mxPoint x="2615" y="945" as="sourcePoint" />
            <Array as="points">
              <mxPoint x="2660" y="1010" />
            </Array>
          </mxGeometry>
        </mxCell>
        <mxCell id="29fKvCjMz5vi_2pHAFxL-104" value="Đồng ý xoá" style="edgeLabel;html=1;align=center;verticalAlign=middle;resizable=0;points=[];" vertex="1" connectable="0" parent="29fKvCjMz5vi_2pHAFxL-103">
          <mxGeometry x="-0.3607" y="-2" relative="1" as="geometry">
            <mxPoint as="offset" />
          </mxGeometry>
        </mxCell>
        <mxCell id="29fKvCjMz5vi_2pHAFxL-105" value="" style="edgeStyle=orthogonalEdgeStyle;html=1;verticalAlign=bottom;endArrow=open;endSize=8;strokeColor=#ff0000;rounded=0;" edge="1" source="29fKvCjMz5vi_2pHAFxL-96" target="29fKvCjMz5vi_2pHAFxL-98" parent="1">
          <mxGeometry relative="1" as="geometry">
            <mxPoint x="2659.5" y="805" as="targetPoint" />
            <mxPoint x="2659.5" y="755" as="sourcePoint" />
          </mxGeometry>
        </mxCell>
        <mxCell id="29fKvCjMz5vi_2pHAFxL-106" value="" style="edgeStyle=orthogonalEdgeStyle;html=1;verticalAlign=bottom;endArrow=open;endSize=8;strokeColor=#ff0000;rounded=0;" edge="1" source="29fKvCjMz5vi_2pHAFxL-96" parent="1">
          <mxGeometry relative="1" as="geometry">
            <mxPoint x="2850" y="795" as="targetPoint" />
            <mxPoint x="2615" y="765" as="sourcePoint" />
          </mxGeometry>
        </mxCell>
        <mxCell id="29fKvCjMz5vi_2pHAFxL-107" value="" style="edgeStyle=orthogonalEdgeStyle;html=1;verticalAlign=bottom;endArrow=open;endSize=8;strokeColor=#ff0000;rounded=0;" edge="1" target="29fKvCjMz5vi_2pHAFxL-87" parent="1">
          <mxGeometry relative="1" as="geometry">
            <mxPoint x="2860" y="805" as="targetPoint" />
            <mxPoint x="2850" y="835" as="sourcePoint" />
            <Array as="points">
              <mxPoint x="2850" y="865" />
              <mxPoint x="2245" y="865" />
            </Array>
          </mxGeometry>
        </mxCell>
        <mxCell id="29fKvCjMz5vi_2pHAFxL-108" value="" style="edgeStyle=orthogonalEdgeStyle;html=1;verticalAlign=bottom;endArrow=open;endSize=8;strokeColor=#ff0000;rounded=0;" edge="1" source="29fKvCjMz5vi_2pHAFxL-66" target="29fKvCjMz5vi_2pHAFxL-72" parent="1">
          <mxGeometry relative="1" as="geometry">
            <mxPoint x="2574.9700000000003" y="225" as="targetPoint" />
            <mxPoint x="2714.9700000000003" y="70" as="sourcePoint" />
            <Array as="points">
              <mxPoint x="2790" y="180" />
            </Array>
          </mxGeometry>
        </mxCell>
        <mxCell id="29fKvCjMz5vi_2pHAFxL-109" value="" style="edgeStyle=orthogonalEdgeStyle;html=1;verticalAlign=bottom;endArrow=open;endSize=8;strokeColor=#ff0000;rounded=0;" edge="1" source="29fKvCjMz5vi_2pHAFxL-66" target="29fKvCjMz5vi_2pHAFxL-70" parent="1">
          <mxGeometry relative="1" as="geometry">
            <mxPoint x="2800" y="285" as="targetPoint" />
            <mxPoint x="2470" y="190" as="sourcePoint" />
            <Array as="points">
              <mxPoint x="2590" y="180" />
            </Array>
          </mxGeometry>
        </mxCell>
        <mxCell id="29fKvCjMz5vi_2pHAFxL-110" value="Hiển thị thông tin&lt;br&gt;giao dịch" style="rounded=1;whiteSpace=wrap;html=1;arcSize=40;fontColor=#000000;fillColor=#ffffc0;strokeColor=#ff0000;" vertex="1" parent="1">
          <mxGeometry x="2790" y="795" width="120" height="40" as="geometry" />
        </mxCell>
      </root>
    </mxGraphModel>
  </diagram>
</mxfile>
